<?xml version="1.0" standalone="no"?>
<!DOCTYPE svg PUBLIC "-//W3C//DTD SVG 20010904//EN"
 "http://www.w3.org/TR/2001/REC-SVG-20010904/DTD/svg10.dtd">
<svg version="1.0" xmlns="http://www.w3.org/2000/svg"
 width="512.000000pt" height="512.000000pt" viewBox="0 0 512.000000 512.000000"
 preserveAspectRatio="xMidYMid meet">
<metadata>
Created by potrace 1.11, written by Peter Selinger 2001-2013
</metadata>
<g transform="translate(0.000000,512.000000) scale(0.100000,-0.100000)"
fill="#000000" stroke="none">
<path d="M2035 4762 c-22 -8 -41 -16 -43 -17 -2 -2 72 -238 181 -580 22 -71
42 -132 42 -135 19 -77 27 -92 50 -86 36 9 75 25 75 30 0 3 -7 27 -16 53 -9
26 -27 82 -39 123 -28 91 -136 434 -172 548 -15 45 -30 82 -33 81 -3 -1 -23
-8 -45 -17z"/>
<path d="M2704 4527 c-31 -67 -95 -200 -141 -296 -46 -95 -83 -176 -83 -180 0
-9 66 -41 85 -41 8 0 15 4 15 9 0 4 31 73 69 152 160 334 201 422 201 428 0 4
-20 17 -44 28 l-43 22 -59 -122z"/>
<path d="M3178 4265 c-106 -28 -191 -101 -240 -205 -27 -58 -36 -68 -74 -84
-55 -23 -135 -93 -167 -149 -43 -73 -64 -193 -45 -262 7 -24 4 -33 -13 -47
-12 -10 -26 -15 -32 -11 -5 3 -7 2 -4 -3 3 -6 -11 -25 -30 -44 -51 -50 -87
-132 -86 -200 0 -50 44 -223 253 -995 12 -44 30 -111 40 -150 168 -631 226
-838 246 -877 56 -111 191 -190 310 -182 60 3 982 251 1029 276 22 11 56 36
76 55 19 18 39 30 44 26 4 -5 5 -2 1 5 -4 7 1 27 12 45 27 43 42 102 43 170
l2 55 101 28 c55 15 120 36 144 46 206 87 343 322 321 553 -4 39 -37 180 -73
314 -37 135 -64 251 -61 258 2 8 1 12 -3 9 -4 -2 -18 37 -31 87 -48 185 -86
247 -176 288 -86 38 -119 37 -315 -17 -52 -14 -143 -38 -202 -54 l-108 -28
-10 42 c-6 22 -17 62 -24 87 l-13 45 38 43 c62 70 84 124 84 211 0 58 -6 86
-24 123 -49 101 -145 167 -252 175 -46 3 -59 8 -67 26 -35 76 -122 129 -213
127 -56 0 -56 0 -74 39 -24 54 -103 126 -171 156 -66 29 -167 37 -236 19z
m202 -118 c46 -22 104 -79 120 -116 11 -27 9 -33 -12 -63 -31 -41 -52 -93 -45
-111 3 -8 24 -14 51 -16 41 -2 46 1 52 22 10 44 58 79 112 85 46 4 53 2 86
-29 46 -43 58 -83 40 -134 -10 -29 -10 -40 -1 -49 17 -17 60 -46 68 -46 6 0
30 53 43 93 12 38 107 10 163 -48 79 -82 77 -200 -4 -281 -106 -106 -293 -52
-333 97 -10 37 -11 37 -43 28 -17 -5 -72 -20 -122 -33 -49 -14 -155 -42 -235
-64 -133 -36 -189 -51 -215 -58 -57 -14 -227 -62 -229 -65 -3 -2 7 -44 20 -94
39 -145 85 -316 98 -366 12 -44 6 -88 -11 -90 -4 0 -16 -2 -25 -4 -9 -2 -24 2
-33 8 -14 11 -59 163 -125 422 -13 50 -25 92 -27 94 -1 2 -41 -6 -88 -19 -48
-12 -88 -20 -91 -17 -10 10 35 84 66 111 39 32 45 32 66 1 21 -33 34 -32 69 5
25 26 28 33 17 48 -79 109 -84 236 -12 335 30 42 88 89 100 82 4 -3 10 -20 13
-39 5 -29 31 -100 44 -115 2 -3 16 4 31 15 15 11 35 23 46 27 13 5 15 11 8 20
-18 23 -34 88 -34 136 2 186 203 308 372 228z m270 -696 c0 -22 84 -100 136
-125 50 -25 71 -29 137 -29 75 0 90 -3 51 -11 -11 -3 -113 -30 -229 -61 -115
-31 -217 -58 -225 -60 -8 -2 -82 -23 -165 -45 -82 -23 -158 -43 -169 -45 -27
-6 -27 -7 -13 -56 14 -45 21 -49 72 -36 11 3 63 17 115 31 52 14 223 60 378
102 156 41 286 73 289 71 2 -3 25 -81 49 -174 25 -92 55 -206 68 -253 58 -212
280 -1039 288 -1075 18 -75 -5 -159 -61 -218 -44 -48 -51 -51 -396 -142 -77
-21 -194 -52 -260 -71 -67 -18 -132 -35 -145 -38 -14 -3 -65 -16 -115 -30
-136 -39 -209 -32 -279 26 -34 28 -81 109 -90 158 -3 14 -30 117 -61 230 -30
113 -71 264 -90 335 -19 72 -68 256 -110 410 -72 268 -120 450 -185 690 -42
158 -43 146 12 161 l48 12 11 -42 c49 -188 102 -374 114 -395 17 -35 84 -71
129 -71 78 0 148 64 152 140 1 21 -4 60 -12 87 -64 233 -95 356 -90 360 2 3
96 29 208 59 112 30 250 67 308 83 115 33 130 35 130 22z m1082 -277 c14 -8
36 -27 48 -44 23 -33 104 -315 95 -330 -3 -6 -2 -10 4 -10 5 0 18 -37 29 -82
12 -46 35 -132 51 -193 43 -152 43 -151 48 -232 11 -158 -79 -325 -218 -406
-39 -23 -160 -63 -246 -81 -30 -7 -32 -5 -42 31 -16 56 -15 57 37 72 114 33
245 139 292 237 56 119 59 221 10 404 -17 63 -32 123 -35 132 -11 49 -59 221
-76 279 -18 56 -27 69 -62 92 -24 16 -55 27 -75 27 -19 0 -105 -19 -191 -41
-222 -59 -208 -59 -218 -13 -4 22 -8 43 -8 48 0 5 104 37 230 71 235 63 271
68 327 39z m-125 -212 c14 -9 38 -84 82 -252 16 -63 43 -164 59 -225 52 -202
22 -314 -116 -427 -29 -23 -49 -33 -114 -56 -52 -19 -58 -19 -62 -4 -3 10 -55
204 -116 432 -61 228 -113 422 -115 431 -4 12 14 20 82 37 49 13 126 33 173
47 94 26 109 28 127 17z"/>
<path d="M3955 2858 c-22 -6 -41 -11 -42 -12 -2 -2 35 -147 91 -350 20 -71 34
-132 31 -134 -3 -3 -1 -10 4 -16 4 -6 20 -58 35 -116 27 -103 35 -131 75 -275
11 -38 22 -85 26 -102 9 -43 15 -46 70 -32 31 8 44 16 41 25 -5 12 -24 83 -32
114 -2 8 -19 74 -39 145 -19 72 -48 180 -64 240 -16 61 -38 143 -49 183 -11
39 -17 72 -15 72 3 0 1 6 -4 13 -9 10 -26 70 -38 127 -9 46 -37 130 -43 129
-4 -1 -25 -6 -47 -11z"/>
<path d="M3630 2770 c-8 -5 -25 -10 -37 -10 -33 0 -36 16 57 -330 17 -63 44
-164 61 -225 16 -60 42 -159 59 -220 17 -60 40 -147 51 -192 l21 -81 45 13
c25 8 47 15 49 17 2 3 -31 132 -72 289 -42 156 -78 291 -80 299 -2 8 -21 80
-43 160 -84 311 -79 300 -111 280z"/>
<path d="M3252 2669 c-29 -9 -32 -13 -26 -37 6 -27 39 -150 184 -685 44 -163
80 -305 80 -313 0 -10 6 -14 14 -11 8 3 31 9 50 13 21 3 36 12 36 20 0 11 -73
293 -110 424 -10 34 -32 117 -86 320 -21 81 -54 202 -71 263 -5 19 -21 20 -71
6z"/>
<path d="M2907 2578 c-21 -6 -36 -15 -34 -22 2 -6 21 -74 42 -151 20 -77 45
-169 55 -205 17 -62 98 -367 106 -400 2 -8 17 -64 34 -125 17 -60 32 -115 34
-122 4 -22 13 -24 60 -12 36 9 45 15 41 28 -2 9 -13 50 -24 91 -26 100 -103
387 -142 530 -17 63 -33 121 -34 130 -2 8 -13 49 -25 90 -57 204 -45 186 -113
168z"/>
<path d="M4266 1723 c-3 -4 -191 -55 -431 -118 -311 -82 -647 -174 -652 -178
-4 -5 13 -86 19 -93 3 -2 148 34 324 82 175 47 353 94 394 105 331 89 415 112
418 114 2 1 -2 23 -9 49 -10 40 -14 45 -36 44 -13 -2 -25 -4 -27 -5z"/>
<path d="M1485 4174 c-9 -25 -15 -47 -13 -49 3 -4 216 -106 373 -180 39 -18
103 -49 144 -68 l73 -36 23 42 c12 23 21 44 19 47 -3 6 -39 24 -204 103 -63
30 -177 85 -254 121 -76 36 -139 66 -141 66 -1 0 -10 -21 -20 -46z"/>
<path d="M1790 3560 c-25 -4 -68 -18 -95 -31 -57 -26 -145 -111 -164 -157 -12
-29 -15 -30 -73 -31 -79 0 -151 -39 -193 -103 -28 -43 -32 -46 -85 -51 -58 -6
-139 -37 -160 -62 -7 -8 -19 -15 -28 -15 -8 0 -12 -3 -9 -6 4 -4 -4 -20 -18
-35 -13 -16 -33 -55 -45 -86 -39 -102 -8 -233 73 -311 l35 -34 -24 -85 c-13
-47 -25 -87 -26 -88 -3 -3 -153 35 -366 93 -159 43 -234 34 -316 -39 -58 -50
-72 -84 -135 -319 -34 -124 -72 -265 -85 -315 -55 -200 -67 -259 -67 -333 0
-142 58 -285 154 -381 94 -94 163 -130 332 -172 l85 -21 -1 -52 c-4 -141 86
-275 216 -323 17 -7 82 -25 145 -42 63 -17 167 -45 230 -62 63 -17 156 -41
205 -54 50 -13 133 -36 185 -50 213 -58 260 -62 350 -30 62 22 127 73 164 129
32 48 61 131 91 261 2 6 28 102 58 215 31 113 83 309 117 435 62 232 84 317
141 524 17 62 32 120 34 130 14 68 70 257 77 259 4 2 6 7 3 12 -3 5 6 54 21
109 23 89 24 107 14 153 -6 29 -22 71 -35 94 -24 41 -109 124 -127 124 -4 0
-6 10 -3 23 20 87 8 185 -36 272 -29 58 -114 138 -171 160 -38 14 -47 24 -75
83 -36 74 -50 92 -115 144 -72 59 -180 85 -278 68z m196 -135 c45 -26 87 -76
110 -130 18 -45 18 -146 -1 -191 -17 -42 -16 -45 30 -73 l35 -20 14 22 c8 12
20 42 26 67 7 25 14 51 16 59 3 10 14 6 42 -15 48 -37 58 -49 87 -109 43 -88
29 -196 -37 -287 -11 -15 -7 -23 22 -53 l35 -36 26 31 c30 35 44 33 85 -12 26
-28 57 -88 50 -95 -3 -3 -43 4 -88 16 -99 25 -98 25 -98 6 0 -8 -16 -72 -36
-142 -19 -70 -37 -135 -39 -144 -17 -78 -50 -188 -61 -206 -18 -28 -48 -29
-73 -4 -21 21 -20 30 5 111 7 25 15 56 18 70 2 14 19 77 36 140 57 204 60 219
41 224 -9 3 -61 17 -116 32 -55 15 -102 31 -103 36 -2 4 -7 6 -11 4 -7 -4 -99
16 -141 30 -8 3 -16 5 -17 5 -2 0 -33 9 -70 20 -38 11 -99 29 -138 39 -78 20
-182 48 -206 55 -11 4 -19 -6 -28 -36 -52 -175 -277 -206 -367 -53 -68 116 -4
263 127 294 51 12 69 8 69 -16 0 -13 25 -71 36 -83 2 -2 22 9 44 24 30 20 39
33 34 44 -16 36 -16 101 1 127 22 33 73 64 108 64 52 0 112 -44 122 -89 5 -26
8 -27 53 -21 46 5 47 6 44 39 -2 31 -35 91 -54 99 -28 12 23 99 84 146 76 57
196 62 284 11z m-440 -686 c24 -6 44 -16 44 -21 0 -5 4 -6 10 -3 5 3 74 -13
152 -35 79 -23 180 -51 226 -62 45 -11 82 -23 82 -28 0 -4 8 -6 18 -4 9 2 23
0 31 -5 11 -7 7 -33 -24 -147 -78 -287 -79 -292 -66 -333 12 -42 53 -88 89
-102 61 -23 142 -1 179 50 17 21 68 187 88 281 6 28 45 163 47 165 2 1 24 -4
49 -11 l47 -14 -29 -107 c-15 -60 -82 -310 -149 -558 -67 -247 -123 -457 -125
-465 -3 -16 -45 -173 -139 -522 -31 -114 -60 -218 -65 -231 -28 -73 -127 -138
-210 -138 -25 0 -122 21 -216 46 -93 25 -217 59 -275 74 -58 16 -186 50 -285
76 -239 62 -273 81 -318 173 -36 72 -33 109 23 317 55 202 60 223 110 410 90
338 143 536 161 594 10 35 21 76 24 91 3 15 16 66 30 114 14 47 25 92 25 99 1
40 12 38 430 -73 239 -65 417 -107 422 -102 5 5 11 22 14 37 3 16 7 32 10 37
8 13 -24 23 -311 99 -357 94 -517 138 -522 143 -3 2 26 4 64 3 84 -1 112 5
167 37 43 25 116 98 116 116 0 13 21 13 76 -1z m-852 -310 c61 -16 118 -32
126 -34 84 -20 116 -29 123 -35 12 -11 -14 -90 -29 -90 -8 0 -64 14 -126 30
-239 64 -274 69 -324 42 -50 -27 -62 -56 -133 -318 -38 -143 -74 -287 -80
-320 -39 -222 94 -439 313 -510 28 -9 55 -20 59 -24 5 -4 3 -26 -3 -49 -13
-49 -7 -48 -156 -6 -108 31 -153 55 -217 118 -88 86 -140 213 -136 330 3 62
14 109 109 462 34 127 69 257 77 290 18 72 44 117 80 141 59 38 88 36 317 -27z
m-4 -210 c100 -26 147 -39 197 -54 8 -3 3 -35 -18 -112 -16 -59 -31 -116 -33
-125 -3 -10 -19 -71 -36 -135 -18 -65 -34 -125 -35 -133 -2 -8 -4 -15 -5 -15
-1 0 -3 -7 -5 -15 -5 -26 -76 -294 -86 -327 -10 -30 -12 -31 -42 -21 -187 60
-294 199 -281 364 4 47 45 219 64 269 5 14 12 38 15 53 13 74 74 275 85 282
16 10 36 7 180 -31z"/>
<path d="M1100 2118 c-6 -23 -20 -72 -30 -108 -22 -80 -53 -196 -120 -450 -29
-107 -63 -234 -77 -282 -13 -48 -26 -99 -29 -114 -3 -15 -6 -31 -7 -36 -2 -10
29 -20 72 -22 22 -1 26 6 43 69 11 39 25 93 33 120 8 28 35 129 61 225 26 96
60 224 76 284 16 59 31 116 33 126 3 16 32 123 51 191 3 12 -4 18 -28 22 -18
3 -41 8 -50 12 -13 5 -19 -2 -28 -37z"/>
<path d="M1455 2051 c-2 -9 -4 -18 -4 -21 0 -3 -4 -18 -10 -33 -6 -16 -29 -97
-52 -180 -77 -291 -201 -752 -206 -768 -6 -20 2 -26 55 -37 l42 -10 10 42 c6
22 22 84 36 136 14 52 27 103 29 113 2 10 14 52 25 95 43 154 122 447 125 464
2 9 13 51 25 93 12 42 20 81 18 87 -2 6 -23 17 -46 23 -36 11 -42 11 -47 -4z"/>
<path d="M1800 1966 c0 -7 -180 -677 -191 -712 -5 -17 -12 -41 -14 -54 -2 -12
-12 -48 -21 -79 -9 -31 -17 -63 -19 -72 -2 -9 -8 -34 -14 -55 -6 -22 -11 -44
-11 -50 0 -13 82 -36 92 -26 6 7 48 156 110 392 27 104 93 352 118 440 5 19
10 38 10 42 1 4 10 38 21 75 10 37 19 71 19 74 0 3 -17 11 -39 17 -40 12 -61
15 -61 8z"/>
<path d="M2145 1868 c-3 -7 -20 -71 -39 -143 -101 -384 -178 -668 -186 -690
-5 -14 -7 -25 -4 -25 2 0 0 -8 -5 -17 -5 -10 -12 -34 -15 -54 -3 -20 -10 -48
-16 -63 -5 -15 -10 -29 -10 -30 0 -9 92 -28 99 -20 4 5 27 83 51 174 24 91 65
246 92 345 27 99 51 188 53 198 8 34 73 272 80 289 5 13 0 20 -16 26 -52 20
-79 23 -84 10z"/>
<path d="M792 974 c-13 -50 -12 -56 16 -60 21 -3 101 -24 122 -31 8 -3 71 -21
140 -39 69 -18 202 -53 295 -79 94 -25 179 -48 190 -50 11 -3 93 -25 183 -50
90 -25 167 -45 171 -45 8 0 31 67 31 87 0 11 -12 15 -175 57 -154 41 -468 125
-520 140 -66 20 -431 116 -436 116 -3 0 -10 -21 -17 -46z"/>
</g>
</svg>
